<?xml version="1.0" standalone="no"?>
<svg xmlns="http://www.w3.org/2000/svg" xmlns:xlink="http://www.w3.org/1999/xlink" width="460pt" height="400pt" viewBox="0.00 0.00 460.2 400">
<g id="graph0" class="graph" transform="translate(4,396) scale(1)" data-name="G">

<polygon fill="#2e3e56" stroke="none" points="-4,4 -4,-396 456.2,-396 456.2,4 -4,4"/>
<g id="clust2" class="cluster" data-name="cluster_01">

<polygon fill="#2e3e56" stroke="black" points="29.12,-255 29.12,-384 365.23,-384 365.23,-255 29.12,-255" style=""/>
<text text-anchor="middle" x="197.17" y="-367.4" font-family="Times,serif" font-size="14.00" style="">Legend</text>
</g>
<g id="clust1" class="cluster" data-name="clusterTicTacToe">

<path fill="#445773" stroke="#445773" d="M20,-8C20,-8 432.2,-8 432.2,-8 438.2,-8 444.2,-14 444.2,-20 444.2,-20 444.2,-235 444.2,-235 444.2,-241 438.2,-247 432.2,-247 432.2,-247 20,-247 20,-247 14,-247 8,-241 8,-235 8,-235 8,-20 8,-20 8,-14 14,-8 20,-8" style=""/>
<text text-anchor="middle" x="226.1" y="-230.4" font-family="Times,serif" font-size="14.00" fill="#f0f0f0" style="">TicTacToe</text>
</g>
<!-- TicTacToe.ResetGame -->
<g id="node1" class="node" pointer-events="visible" data-name="TicTacToe.ResetGame">

<ellipse fill="#ffbdb9" stroke="#ffbdb9" stroke-width="3" cx="102.12" cy="-196" rx="55.6" ry="18"/>
<text text-anchor="middle" x="102.12" y="-191.8" font-family="Times,serif" font-size="14.00">ResetGame</text>
</g>
<!-- TicTacToe.printBoard -->
<g id="node2" class="node" pointer-events="visible" data-name="TicTacToe.printBoard">

<ellipse fill="#ffbdb9" stroke="#ffbdb9" stroke-width="3" cx="102.12" cy="-142" rx="52.75" ry="18"/>
<text text-anchor="middle" x="102.12" y="-137.8" font-family="Times,serif" font-size="14.00">printBoard</text>
</g>
<!-- TicTacToe.printBoardint -->
<g id="node3" class="node" pointer-events="visible" data-name="TicTacToe.printBoardint">

<ellipse fill="#edad56" stroke="#edad56" stroke-width="3" cx="330.23" cy="-34" rx="63.14" ry="18"/>
<text text-anchor="middle" x="330.23" y="-29.8" font-family="Times,serif" font-size="14.00">printBoardint</text>
</g>
<!-- TicTacToe.requestPlayerMove -->
<g id="node4" class="node" pointer-events="visible" data-name="TicTacToe.requestPlayerMove">

<ellipse fill="#ffbdb9" stroke="#ffbdb9" stroke-width="3" cx="102.12" cy="-88" rx="86.25" ry="18"/>
<text text-anchor="middle" x="102.12" y="-83.8" font-family="Times,serif" font-size="14.00">requestPlayerMove</text>
</g>
<!-- TicTacToe.makePlayerMove -->
<g id="node5" class="node" pointer-events="visible" data-name="TicTacToe.makePlayerMove">

<ellipse fill="#ffbdb9" stroke="#ffbdb9" stroke-width="3" cx="102.12" cy="-34" rx="79.3" ry="18"/>
<text text-anchor="middle" x="102.12" y="-29.8" font-family="Times,serif" font-size="14.00">makePlayerMove</text>
</g><g id="edge4" class="edge" data-name="TicTacToe.makePlayerMove-&gt;TicTacToe.printBoardint" data-comment="TicTacToe.makePlayerMove">

<path fill="none" stroke="#1bc6a6" stroke-width="2" d="M182.84,-34C205.58,-34 230.3,-34 252.84,-34"/>
<polygon fill="#1bc6a6" stroke="#1bc6a6" stroke-width="2" points="252.8,-37.5 262.8,-34 252.8,-30.5 252.8,-37.5"/>
</g>
<!-- TicTacToe.makePlayerMove&#45;&gt;TicTacToe.printBoardint -->

<!-- TicTacToe.changePlayer -->
<g id="node6" class="node" pointer-events="visible" data-name="TicTacToe.changePlayer">

<ellipse fill="#edad56" stroke="#edad56" stroke-width="3" cx="330.23" cy="-88" rx="63.1" ry="18"/>
<text text-anchor="middle" x="330.23" y="-83.8" font-family="Times,serif" font-size="14.00">changePlayer</text>
</g><g id="edge3" class="edge" data-name="TicTacToe.makePlayerMove-&gt;TicTacToe.changePlayer" data-comment="TicTacToe.changePlayer">

<path fill="none" stroke="#1bc6a6" stroke-width="2" d="M159.89,-47.56C192.48,-55.34 233.46,-65.13 266.93,-73.12"/>
<polygon fill="#1bc6a6" stroke="#1bc6a6" stroke-width="2" points="265.88,-76.47 276.42,-75.39 267.51,-69.66 265.88,-76.47"/>
</g>
<!-- TicTacToe.makePlayerMove&#45;&gt;TicTacToe.changePlayer -->

<!-- TicTacToe.checkWinningCondition -->
<g id="node7" class="node" pointer-events="visible" data-name="TicTacToe.checkWinningCondition">

<ellipse fill="#edad56" stroke="#edad56" stroke-width="3" cx="330.23" cy="-142" rx="105.96" ry="18"/>
<text text-anchor="middle" x="330.23" y="-137.8" font-family="Times,serif" font-size="14.00">checkWinningCondition</text>
</g><g id="edge1" class="edge" data-name="TicTacToe.makePlayerMove-&gt;TicTacToe.checkWinningCondition" data-comment="TicTacToe.checkWinningCondition">

<path fill="none" stroke="#1bc6a6" stroke-width="2" d="M162.01,-46.89C171.32,-50.51 180.44,-55.13 188.25,-61 211.3,-78.34 200.72,-98.3 224.25,-115 228.95,-118.34 234.03,-121.26 239.33,-123.83"/>
<polygon fill="#1bc6a6" stroke="#1bc6a6" stroke-width="2" points="237.87,-127.01 248.44,-127.7 240.6,-120.57 237.87,-127.01"/>
</g>
<!-- TicTacToe.makePlayerMove&#45;&gt;TicTacToe.checkWinningCondition --><!-- TicTacToe.checkTieCondition -->

<g id="node8" class="node" pointer-events="visible" data-name="TicTacToe.checkTieCondition">

<ellipse fill="#edad56" stroke="#edad56" stroke-width="3" cx="330.23" cy="-196" rx="85.11" ry="18"/>
<text text-anchor="middle" x="330.23" y="-191.8" font-family="Times,serif" font-size="14.00">checkTieCondition</text>
</g><!-- TicTacToe.makePlayerMove&#45;&gt;TicTacToe.checkTieCondition -->
<g id="edge2" class="edge" data-name="TicTacToe.makePlayerMove-&gt;TicTacToe.checkTieCondition">

<path fill="none" stroke="#1bc6a6" stroke-width="2" d="M165.19,-45.95C173.7,-49.68 181.73,-54.58 188.25,-61 224.28,-96.51 187.24,-134.5 224.25,-169 229.71,-174.1 236.01,-178.26 242.75,-181.66"/>
<polygon fill="#1bc6a6" stroke="#1bc6a6" stroke-width="2" points="241.09,-184.76 251.66,-185.5 243.86,-178.33 241.09,-184.76"/>
</g>
<!-- key -->
<g id="node9" class="node" pointer-events="visible" data-name="key">

<polygon fill="#edad56" stroke="none" stroke-width="3" points="167.12,-351 37.12,-351 37.12,-263 167.12,-263 167.12,-351"/>
<text text-anchor="start" x="86.76" y="-332.4" font-family="Times,serif" font-size="14.00">Internal Call</text>
<text text-anchor="start" x="82.87" y="-312.4" font-family="Times,serif" font-size="14.00">External Call</text>
<text text-anchor="start" x="60.33" y="-292.4" font-family="Times,serif" font-size="14.00">Defined Contract</text>
<text text-anchor="start" x="46.72" y="-272.4" font-family="Times,serif" font-size="14.00">Undefined Contract</text>
</g>
<!-- key2 -->
<g id="node10" class="node" pointer-events="visible" data-name="key2">

<polygon fill="#edad56" stroke="none" stroke-width="3" points="357.23,-351 303.23,-351 303.23,-263 357.23,-263 357.23,-351"/>
<text text-anchor="start" x="320.23" y="-332.4" font-family="Times,serif" font-size="14.00">   </text>
<text text-anchor="start" x="320.23" y="-312.4" font-family="Times,serif" font-size="14.00">   </text>
<polygon fill="#445773" stroke="none" points="318.23,-287 318.23,-307 343.23,-307 343.23,-287 318.23,-287"/>
<text text-anchor="start" x="320.23" y="-292.4" font-family="Times,serif" font-size="14.00">   </text>
<polygon fill="none" stroke="#e8726d" points="320.23,-269 320.23,-285 341.23,-285 341.23,-269 320.23,-269"/>
</g>
<!-- key&#45;&gt;key2 -->
<g id="edge5" class="edge" data-name="key-&gt;key2">

<path fill="none" stroke="#1bc6a6" stroke-width="2" d="M160.12,-337C225.45,-337 244.93,-337 304.35,-337"/>
<polygon fill="#1bc6a6" stroke="#1bc6a6" stroke-width="2" points="304.2,-340.5 314.2,-337 304.2,-333.5 304.2,-340.5"/>
</g>
<!-- key&#45;&gt;key2 -->


<g id="edge6" class="edge" data-name="key-&gt;key2">

<path fill="none" stroke="white" stroke-width="2" d="M160.12,-317C225.45,-317 244.93,-317 304.35,-317"/>
<polygon fill="white" stroke="white" stroke-width="2" points="304.2,-320.5 314.2,-317 304.2,-313.5 304.2,-320.5"/>
</g>
</g>
</svg>